<svg width="217" height="89" viewBox="0 0 217 89" fill="none" xmlns="http://www.w3.org/2000/svg">
<g id="Frame 990">
<g id="Group 207">
<path id="mark" d="M64.4347 61V32.6364H70.8239V37.456H71.1562C71.7472 35.831 72.7259 34.563 74.0923 33.652C75.4588 32.7287 77.09 32.267 78.9858 32.267C80.9062 32.267 82.5251 32.7348 83.8423 33.6705C85.1719 34.5937 86.1075 35.8556 86.6491 37.456H86.9446C87.5724 35.8802 88.6312 34.6245 90.1207 33.6889C91.6226 32.741 93.4015 32.267 95.4574 32.267C98.0672 32.267 100.197 33.0919 101.847 34.7415C103.496 36.3911 104.321 38.7978 104.321 41.9616V61H97.6179V42.9957C97.6179 41.2353 97.1501 39.9489 96.2145 39.1364C95.2789 38.3116 94.134 37.8991 92.7798 37.8991C91.1671 37.8991 89.9053 38.4039 88.9943 39.4134C88.0956 40.4105 87.6463 41.7093 87.6463 43.3097V61H81.0909V42.7188C81.0909 41.2538 80.6477 40.0843 79.7614 39.2102C78.8873 38.3362 77.7424 37.8991 76.3267 37.8991C75.3665 37.8991 74.4924 38.1454 73.7045 38.6378C72.9167 39.1179 72.2888 39.8011 71.821 40.6875C71.3532 41.5616 71.1193 42.5833 71.1193 43.7528V61H64.4347ZM119.265 61.5724C117.467 61.5724 115.848 61.2524 114.408 60.6122C112.98 59.9598 111.847 58.9995 111.01 57.7315C110.185 56.4635 109.773 54.9001 109.773 53.0412C109.773 51.4408 110.069 50.1174 110.659 49.071C111.25 48.0246 112.057 47.1875 113.078 46.5597C114.1 45.9318 115.251 45.4579 116.532 45.1378C117.824 44.8054 119.16 44.5653 120.539 44.4176C122.201 44.2453 123.549 44.0914 124.583 43.956C125.617 43.8082 126.368 43.5866 126.836 43.2912C127.316 42.9834 127.556 42.5095 127.556 41.8693V41.7585C127.556 40.3674 127.143 39.2902 126.319 38.527C125.494 37.7637 124.306 37.3821 122.755 37.3821C121.117 37.3821 119.819 37.7391 118.858 38.4531C117.91 39.1671 117.27 40.0104 116.938 40.983L110.696 40.0966C111.189 38.3731 112.001 36.9328 113.134 35.7756C114.266 34.6061 115.651 33.732 117.289 33.1534C118.926 32.5625 120.736 32.267 122.718 32.267C124.084 32.267 125.444 32.4271 126.799 32.7472C128.153 33.0672 129.39 33.5966 130.51 34.3352C131.631 35.0616 132.529 36.0526 133.206 37.3082C133.896 38.5639 134.24 40.1335 134.24 42.017V61H127.814V57.1037H127.593C127.186 57.8916 126.614 58.6302 125.875 59.3196C125.149 59.9967 124.232 60.5445 123.124 60.9631C122.028 61.3693 120.742 61.5724 119.265 61.5724ZM121 56.6605C122.342 56.6605 123.506 56.3958 124.49 55.8665C125.475 55.3248 126.232 54.6108 126.762 53.7244C127.303 52.8381 127.574 51.8717 127.574 50.8253V47.483C127.365 47.6553 127.008 47.8153 126.503 47.9631C126.011 48.1108 125.457 48.2401 124.841 48.3509C124.226 48.4616 123.616 48.5601 123.013 48.6463C122.41 48.7325 121.887 48.8063 121.444 48.8679C120.446 49.0033 119.554 49.2249 118.766 49.5327C117.978 49.8404 117.356 50.2713 116.901 50.8253C116.445 51.367 116.218 52.0687 116.218 52.9304C116.218 54.1615 116.667 55.0909 117.566 55.7188C118.464 56.3466 119.609 56.6605 121 56.6605ZM140.962 61V32.6364H147.444V37.3636H147.739C148.256 35.7263 149.142 34.4645 150.398 33.5781C151.666 32.6795 153.113 32.2301 154.738 32.2301C155.107 32.2301 155.519 32.2486 155.975 32.2855C156.443 32.3101 156.83 32.3532 157.138 32.4148V38.5639C156.855 38.4654 156.406 38.3793 155.79 38.3054C155.187 38.2192 154.602 38.1761 154.036 38.1761C152.817 38.1761 151.721 38.4408 150.749 38.9702C149.789 39.4872 149.032 40.2074 148.478 41.1307C147.924 42.054 147.647 43.1188 147.647 44.3253V61H140.962ZM167.673 52.0994L167.654 44.0298H168.725L178.919 32.6364H186.73L174.191 46.5966H172.806L167.673 52.0994ZM161.579 61V23.1818H168.264V61H161.579ZM179.38 61L170.147 48.0923L174.653 43.3835L187.376 61H179.38Z" fill="white"/>
<circle id="Ellipse 35" cx="30" cy="46" r="15" fill="white"/>
</g>
</g>
</svg>
